HIERARCHY
ROOT pelvis
{
  OFFSET 0 100 0
  CHANNELS 6 Xposition Yposition Zposition Zrotation Xrotation Yrotation
  JOINT pelvis_right_femur
  {
    OFFSET -10.78128 -3.44521 -0.5502486
    CHANNELS 3 Zrotation Xrotation Yrotation
    JOINT right_femur_tibia
    {
      OFFSET -0.8047443 -44.0398 -0.1307829
      CHANNELS 3 Zrotation Xrotation Yrotation
      JOINT right_tibia_foot
      {
        OFFSET 3.006224 -47.83518 -5
        CHANNELS 3 Zrotation Xrotation Yrotation
        End Site
        {
          OFFSET 0 -5 15
        }
      }
    }
  }
  JOINT pelvis_left_femur
  {
    OFFSET 10.78128 -3.44521 -0.5502486
    CHANNELS 3 Zrotation Xrotation Yrotation
    JOINT left_femur_tibia
    {
      OFFSET 0.8047443 -44.0398 -0.1307829
      CHANNELS 3 Zrotation Xrotation Yrotation
      JOINT left_tibia_foot
      {
        OFFSET -4.370144 -48.10324 -4.275266
        CHANNELS 3 Zrotation Xrotation Yrotation
        End Site
        {
          OFFSET 0 -5 15
        }
      }
    }
  }
  JOINT pelvis_spine1
  {
    OFFSET 0 6.468898 -3.129235
    CHANNELS 3 Zrotation Xrotation Yrotation
    JOINT spine1
    {
      OFFSET 0 23.15396 4.99043
      CHANNELS 3 Zrotation Xrotation Yrotation
      JOINT spine2
      {
        OFFSET 0 20.79997 -5.064912
        CHANNELS 3 Zrotation Xrotation Yrotation
        JOINT neck
        {
          OFFSET 0 14.38658 9.616178
          CHANNELS 3 Zrotation Xrotation Yrotation
          End Site
          {
            OFFSET 0 20 0
          }
        }
      }
      JOINT right_manubrium
      {
        OFFSET -5.722621 16.35077 3.967754
        CHANNELS 3 Zrotation Xrotation Yrotation
        JOINT right_clavicle
        {
          OFFSET -13.16364 1.694482 -4.693211
          CHANNELS 3 Zrotation Xrotation Yrotation
          JOINT right_humerus
          {
            OFFSET -28.5034 -0.3100689 -2.792744
            CHANNELS 3 Zrotation Xrotation Yrotation
            JOINT right_radius
            {
              OFFSET -25.15693 0.02248979 -1.271978
              CHANNELS 3 Zrotation Xrotation Yrotation
              End Site
              {
                OFFSET -15 0 0
              }
            }
          }
        }
      }
      JOINT left_manubrium
      {
        OFFSET 5.722621 16.35077 3.967754
        CHANNELS 3 Zrotation Xrotation Yrotation
        JOINT left_clavicle
        {
          OFFSET 13.16364 1.694482 -4.693211
          CHANNELS 3 Zrotation Xrotation Yrotation
          JOINT left_humerus
          {
            OFFSET 29.39168 -1.063119 -2.237045
            CHANNELS 3 Zrotation Xrotation Yrotation
            JOINT left_radius
            {
              OFFSET 24.59957 -0.9528479 0.9047498
              CHANNELS 3 Zrotation Xrotation Yrotation
              End Site
              {
                OFFSET 15 -0 -0
              }
            }
          }
        }
      }
    }
  }
}
MOTION
Frames: 11
Frame Time: 0.0416666666667
0 103.5113 0 2.557591 -0.4462645 0.1564045 2.955823 -15.4146 10.44576 -0 34.51244 -0 -1.531467 -18.03513 -2.826486 -8.763935 10.28938 -22.32872 -0 4.795744 -0 19.04691 -10.53244 29.2231 -2.354009 -1.705577 4.654801 2.380001 10.36546 -7.068586 1.406231 21.51342 6.933042 3.394308 -24.86793 9.519098 5.38598 -18.76519 11.33679 87.03875 37.47403 -18.55768 -0 0 13.03184 -8.875159 8.428653 5.160283 5.955496 -20.51903 -2.045445 -90.91457 20.4215 19.39774 0 0 -16.25478 14.01431 12.47013 -2.332442
0.4533543 103.2751 1.665918 2.013125 0.8271448 0.2286104 4.105567 -18.58874 11.40977 -0 34.90256 -0 -1.55611 -18.19276 -3.13827 -8.628401 10.42663 -22.37848 -0 4.836395 -0 19.35283 -11.31956 29.72576 -2.514276 -1.634663 4.519629 2.60817 10.42982 -7.320321 1.435159 21.32261 7.015414 3.410114 -25.24662 9.698959 5.33037 -18.85144 11.38404 87.63428 37.87451 -19.23008 -0 0 12.75037 -8.020022 8.169831 4.687956 5.951239 -20.65474 -2.286289 -90.25459 20.05534 18.68473 0 0 -17.88251 14.66609 11.91446 -3.051905
0.866143 102.7519 3.714424 1.495517 -0.2519849 0.2891237 4.04651 -19.98246 8.114899 -0 32.04796 -0 -4.106057 -13.9057 -1.95216 -7.854452 11.08852 -21.38307 -0 5.569906 -0 16.44199 -13.13006 27.81951 -2.541967 -2.080818 4.604473 2.961218 10.42319 -7.836143 1.489049 20.98563 7.016651 3.231858 -26.1557 10.05588 5.447668 -19.1823 11.38992 88.1712 37.5498 -20.65791 -0 0 13.05536 -6.526774 8.10542 3.823908 6.18666 -21.01312 -2.003208 -90.7946 21.30402 19.25224 0 0 -19.22898 14.42446 12.4085 -2.208063
1.248472 102.1844 6.020361 1.058409 -0.04908281 0.2715474 4.610404 -22.43171 7.256399 -0 30.24627 -0 -4.914841 -11.85888 -1.495441 -7.50856 11.42493 -20.68282 -0 6.141979 -0 15.88963 -13.99795 27.17992 -2.583609 -2.219015 4.587067 3.159459 10.43649 -8.090284 1.529976 20.80292 7.036664 3.159224 -26.59451 10.25536 5.472304 -19.31481 11.40664 88.53159 37.50702 -21.37784 -0 0 13.06353 -5.705513 8.017088 3.392749 6.26558 -21.16216 -1.987645 -90.78968 21.74991 19.22942 0 0 -20.31424 14.45342 12.41001 -2.011236
1.59718 101.5154 8.616424 0.6118082 0.2300517 0.2387227 5.159755 -25.12391 6.346013 -0 27.9405 -0 -5.693958 -9.637514 -1.03594 -7.14994 11.85012 -19.86038 -0 6.839742 -0 15.02049 -15.12259 26.30652 -2.550988 -2.386183 4.577421 3.338551 10.44428 -8.329252 1.580379 20.62947 7.042849 3.065825 -27.02772 10.46487 5.523265 -19.40014 11.41218 88.85698 37.32762 -22.1595 -0 0 13.04622 -4.897467 8.006591 2.989521 6.362555 -21.30839 -1.941018 -90.93308 22.49351 19.34013 0 0 -21.35269 14.25641 12.52844 -1.488027
1.922808 100.757 11.54375 0.2693547 0.5651928 0.2206814 5.685161 -27.64577 5.597906 -0 25.266 -0 -6.206818 -7.490259 -0.5608712 -6.902397 12.27135 -18.91585 -0 7.790678 -0 14.68883 -15.85995 25.4924 -2.498477 -2.453784 4.550101 3.442664 10.45533 -8.454888 1.612029 20.52423 7.051785 3.009239 -27.27427 10.59438 5.547797 -19.41002 11.41748 89.07069 37.22424 -22.64377 -0 0 12.94614 -4.420379 8.01407 2.791697 6.398672 -21.37642 -1.959026 -90.95149 22.9752 19.33773 0 0 -22.11175 14.09201 12.50462 -1.12089
2.222718 99.93058 14.8558 -0.03094265 0.9224547 0.2485296 6.158826 -29.96663 4.831319 -0 22.27866 -0 -6.671667 -5.317914 -0.1002662 -6.68482 12.77961 -17.85865 -0 9.085154 -0 14.21573 -16.54845 24.47188 -2.408818 -2.491306 4.519602 3.510156 10.4672 -8.53297 1.634587 20.44803 7.05789 2.962565 -27.44459 10.68775 5.571221 -19.37183 11.41929 89.23409 37.10316 -23.04254 -0 0 12.8 -4.086588 8.053968 2.68514 6.416255 -21.41962 -1.992587 -90.9725 23.44928 19.34371 0 0 -22.73361 13.85604 12.45904 -0.695125
2.495217 99.076 18.61057 -0.2740036 1.176134 0.3389378 6.540943 -31.71474 3.979846 -0 19.22902 -0 -7.153865 -3.165467 0.3513305 -6.494499 13.34046 -16.65343 -0 10.93251 -0 13.67466 -16.92928 23.22712 -2.306979 -2.484912 4.488492 3.534814 10.48049 -8.55416 1.641929 20.41093 7.060983 2.934922 -27.51167 10.72544 5.58525 -19.2953 11.42033 89.32916 37.00781 -23.28464 -0 0 12.62545 -3.950715 8.108142 2.688347 6.40585 -21.43111 -2.043601 -90.95707 23.78842 19.32503 0 0 -23.13721 13.61999 12.36772 -0.328599
2.734566 98.26345 22.8572 -0.5118484 1.317028 0.4940526 6.885075 -32.78758 3.109463 -0 16.45099 -0 -7.698755 -1.161347 0.7047968 -6.278691 13.92236 -15.32388 -0 13.52241 -0 12.80364 -16.99274 21.67321 -2.194099 -2.454242 4.462057 3.527764 10.49511 -8.538594 1.637977 20.40231 7.058397 2.919357 -27.50537 10.71906 5.596694 -19.19244 11.42 89.37267 36.91481 -23.42486 -0 0 12.44045 -3.957671 8.176781 2.763858 6.380462 -21.42706 -2.097693 -90.93989 24.0549 19.31209 0 0 -23.36128 13.36391 12.26933 0.02684052
2.936638 97.576 27.62368 -0.7706453 1.269199 0.6858113 7.237298 -33.0013 2.283518 -0 14.28817 -0 -8.336212 0.5816764 0.907104 -5.999773 14.40455 -13.87477 -0 17.09486 -0 11.60388 -16.54337 19.83334 -2.082473 -2.402065 4.444836 3.488997 10.511 -8.48817 1.623531 20.42402 7.048201 2.916335 -27.42501 10.66726 5.605231 -19.0736 11.41834 89.35899 36.83482 -23.44724 -0 0 12.26483 -4.110295 8.254952 2.904437 6.342346 -21.40879 -2.147135 -90.92274 24.2221 19.30518 0 0 -23.37926 13.11372 12.17678 0.3365757
3.098532 97.10601 32.89989 -1.073764 1.000834 0.8588674 7.648438 -32.28592 1.612395 -0 12.99965 -0 -9.062187 1.920244 0.8976194 -5.618921 14.61139 -12.36352 -0 21.82598 -0 10.06617 -15.47836 17.78625 -1.976385 -2.336052 4.441337 3.420049 10.52761 -8.4076 1.601185 20.47445 7.028784 2.923743 -27.27867 10.57489 5.612894 -18.94741 11.41434 89.2875 36.76445 -23.3577 -0 0 12.11557 -4.394023 8.343074 3.09672 6.297056 -21.38008 -2.183425 -90.9218 24.30554 19.31799 0 0 -23.19068 12.87088 12.11123 0.6058029
